<?xml version="1.0" standalone="no"?>
<!DOCTYPE svg PUBLIC "-//W3C//DTD SVG 20010904//EN"
 "http://www.w3.org/TR/2001/REC-SVG-20010904/DTD/svg10.dtd">
<svg version="1.0" xmlns="http://www.w3.org/2000/svg"
 width="500.000000pt" height="500.000000pt" viewBox="0 0 500.000000 500.000000"
 preserveAspectRatio="xMidYMid meet">
<metadata>
Created by potrace 1.14, written by Peter Selinger 2001-2017
</metadata>
<g transform="translate(0.000000,500.000000) scale(0.100000,-0.100000)"
fill="#000000" stroke="none">
<path d="M10 4980 c-10 -6 -6 -1263 4 -1300 3 -14 9 -40 12 -58 7 -43 47 -174
70 -232 73 -182 225 -385 392 -521 50 -42 175 -120 250 -158 73 -37 227 -94
286 -107 106 -23 209 -36 304 -38 108 -3 112 -2 113 18 1 27 1 2377 0 2393 -1
9 -164 12 -712 10 -391 -1 -715 -4 -719 -7z"/>
<path d="M1663 4982 c-19 -3 -23 -10 -23 -40 -1 -20 -3 -197 -5 -392 -3 -195
-7 -548 -10 -785 -2 -236 -7 -596 -10 -800 -3 -203 -7 -570 -10 -815 -3 -245
-7 -473 -8 -508 -1 -34 0 -62 3 -62 3 0 5 -26 6 -58 0 -56 8 -134 19 -182 2
-14 7 -34 9 -45 13 -62 72 -224 110 -301 188 -383 567 -682 987 -779 165 -38
178 -39 419 -40 l225 0 -2 165 c-2 209 -12 953 -18 1300 -4 253 -7 453 -20
1385 -9 634 -11 678 -39 812 -97 459 -427 844 -891 1038 -67 28 -199 68 -262
80 -16 3 -37 7 -49 9 -83 17 -360 28 -431 18z"/>
<path d="M3590 2560 l-35 -5 2 -1150 c1 -632 2 -1168 2 -1190 l1 -41 719 0
719 0 -4 351 c-5 494 -13 856 -18 885 -3 14 -7 43 -11 65 -20 135 -94 324
-179 458 -87 136 -233 288 -361 376 -126 88 -334 184 -440 204 -11 2 -27 7
-35 10 -25 9 -140 26 -225 32 -44 4 -84 7 -90 9 -5 1 -26 0 -45 -4z"/>
</g>
</svg>
