<svg width="234" height="176" viewBox="0 0 234 176" fill="none" xmlns="http://www.w3.org/2000/svg">
<g clip-path="url(#clip0_377_571)">
<path d="M0 8.75406C0 3.91933 3.91933 0 8.75406 0H224.687C229.522 0 233.442 3.91933 233.442 8.75406V166.327C233.442 171.162 229.522 175.081 224.687 175.081H8.75406C3.91933 175.081 0 171.162 0 166.327V8.75406Z" fill="white"/>
<rect width="233.442" height="14.5901" fill="#464646"/>
<rect width="233.442" height="14.5901" fill="#464646"/>
<circle cx="8.75406" cy="7.29497" r="2.91802" fill="#FFFFFF"/>
<circle cx="17.5081" cy="7.29497" r="2.91802" fill="#ffffff"/>
<circle cx="26.2622" cy="7.29497" r="2.91802" fill="#ffffff"/>
<g opacity="0.03">
<rect width="233" height="160.41" transform="translate(0 14.5901)" fill="#FFFFFF"/>
</g>
</g>
<path d="M8.75406 0.729505H224.687V-0.729505H8.75406V0.729505ZM232.712 8.75406V166.327H234.171V8.75406H232.712ZM224.687 174.352H8.75406V175.811H224.687V174.352ZM0.729505 166.327V8.75406H-0.729505V166.327H0.729505ZM8.75406 174.352C4.32222 174.352 0.729505 170.759 0.729505 166.327H-0.729505C-0.729505 171.565 3.51644 175.811 8.75406 175.811V174.352ZM232.712 166.327C232.712 170.759 229.119 174.352 224.687 174.352V175.811C229.925 175.811 234.171 171.565 234.171 166.327H232.712ZM224.687 0.729505C229.119 0.729505 232.712 4.32222 232.712 8.75406H234.171C234.171 3.51643 229.925 -0.729505 224.687 -0.729505V0.729505ZM8.75406 -0.729505C3.51643 -0.729505 -0.729505 3.51643 -0.729505 8.75406H0.729505C0.729505 4.32222 4.32222 0.729505 8.75406 0.729505V-0.729505Z" fill="#FFFFFF"/>
<path d="M163.414 102H170V104H161C160.735 104 160.48 103.895 160.293 103.707C160.105 103.52 160 103.265 160 103V92H157V90H160V87H162V100.586L170.586 92H164V90H172.586L175.142 87.444L176.556 88.858L174 91.414V102H177V104H174V107H172V93.414L163.414 102Z" fill="#398BFD"/>
<path d="M114.683 90.5621L117 92.8801L123.374 86.5051C123.56 86.3193 123.78 86.1719 124.023 86.0713C124.266 85.9708 124.526 85.919 124.789 85.919C125.051 85.919 125.311 85.9708 125.554 86.0713C125.797 86.1719 126.017 86.3193 126.203 86.5051L126.91 87.2121L114.683 99.4381C115.045 100.293 115.099 101.247 114.835 102.137C114.571 103.027 114.006 103.797 113.237 104.316C112.467 104.835 111.541 105.07 110.617 104.981C109.693 104.892 108.828 104.484 108.172 103.828C107.516 103.172 107.108 102.307 107.019 101.383C106.93 100.459 107.165 99.5332 107.684 98.7635C108.203 97.9938 108.973 97.4286 109.863 97.1647C110.753 96.9008 111.707 96.9547 112.562 97.3171L114.88 95.0001L112.562 92.6831C111.707 93.0455 110.753 93.0994 109.863 92.8355C108.973 92.5716 108.203 92.0063 107.684 91.2367C107.165 90.467 106.93 89.5408 107.019 88.6168C107.108 87.6927 107.516 86.8285 108.172 86.1721C108.828 85.5157 109.693 85.108 110.617 85.0189C111.541 84.9299 112.467 85.165 113.237 85.6839C114.006 86.2029 114.571 86.9734 114.835 87.8634C115.099 88.7534 115.045 89.7075 114.683 90.5621V90.5621ZM111 91.0001C111.53 91.0001 112.039 90.7894 112.414 90.4143C112.789 90.0392 113 89.5305 113 89.0001C113 88.4696 112.789 87.9609 112.414 87.5859C112.039 87.2108 111.53 87.0001 111 87.0001C110.47 87.0001 109.961 87.2108 109.586 87.5859C109.211 87.9609 109 88.4696 109 89.0001C109 89.5305 109.211 90.0392 109.586 90.4143C109.961 90.7894 110.47 91.0001 111 91.0001V91.0001ZM111 103C111.53 103 112.039 102.789 112.414 102.414C112.789 102.039 113 101.531 113 101C113 100.47 112.789 99.9609 112.414 99.5859C112.039 99.2108 111.53 99.0001 111 99.0001C110.47 99.0001 109.961 99.2108 109.586 99.5859C109.211 99.9609 109 100.47 109 101C109 101.531 109.211 102.039 109.586 102.414C109.961 102.789 110.47 103 111 103V103ZM120.535 96.4131L126.91 102.789L126.203 103.496C126.017 103.682 125.797 103.829 125.554 103.93C125.311 104.03 125.051 104.082 124.789 104.082C124.526 104.082 124.266 104.03 124.023 103.93C123.78 103.829 123.56 103.682 123.374 103.496L118.414 98.5351L120.534 96.4131H120.535Z" fill="#398BFD"/>
<path d="M71.33 97.5C72.1628 96.8455 72.8359 96.0103 73.2984 95.0575C73.761 94.1047 74.0009 93.0592 74 92H76C76.001 93.4104 75.6701 94.8013 75.0339 96.0601C74.3977 97.3189 73.4742 98.4103 72.338 99.246L74.866 103.624C75.1312 104.083 75.2031 104.629 75.0658 105.142C74.9285 105.654 74.5933 106.091 74.134 106.356L70.607 100.248C69.4697 100.746 68.2414 101.002 67 101C65.7586 101.002 64.5303 100.746 63.393 100.248L59.866 106.356C59.4067 106.091 59.0715 105.654 58.9342 105.142C58.7969 104.629 58.8688 104.083 59.134 103.624L64.197 94.854C63.692 94.3574 63.3278 93.7357 63.1416 93.0524C62.9554 92.369 62.9539 91.6485 63.1372 90.9644C63.3205 90.2803 63.6821 89.6571 64.1851 89.1584C64.6881 88.6597 65.3143 88.3035 66 88.126V86H68V88.126C68.6857 88.3035 69.312 88.6597 69.8149 89.1584C70.3179 89.6571 70.6795 90.2803 70.8628 90.9644C71.0461 91.6485 71.0446 92.369 70.8584 93.0524C70.6722 93.7357 70.308 94.3574 69.803 94.854L71.33 97.5ZM69.6 98.502L68.072 95.855C67.3713 96.0495 66.6308 96.0495 65.93 95.855L64.402 98.502C65.206 98.823 66.082 99 67.001 99C67.919 99 68.796 98.823 69.6 98.502ZM67 93C67.2652 93 67.5196 92.8946 67.7071 92.7071C67.8946 92.5196 68 92.2652 68 92C68 91.7348 67.8946 91.4804 67.7071 91.2929C67.5196 91.1054 67.2652 91 67 91C66.7348 91 66.4804 91.1054 66.2929 91.2929C66.1054 91.4804 66 91.7348 66 92C66 92.2652 66.1054 92.5196 66.2929 92.7071C66.4804 92.8946 66.7348 93 67 93V93Z" fill="#398BFD"/>
<defs>
<clipPath id="clip0_377_571">
<path d="M0 8.75406C0 3.91933 3.91933 0 8.75406 0H224.687C229.522 0 233.442 3.91933 233.442 8.75406V166.327C233.442 171.162 229.522 175.081 224.687 175.081H8.75406C3.91933 175.081 0 171.162 0 166.327V8.75406Z" fill="white"/>
</clipPath>
</defs>
</svg>
